<svg xmlns="http://www.w3.org/2000/svg" viewBox="0 0 1600 1000" role="img" aria-labelledby="t"><title id="t">NOOR X1 locked character reference sheet</title><rect width="1600" height="1000" fill="#f1eee6"/><text x="80" y="85" font-family="Arial,sans-serif" font-size="28" font-weight="700" fill="#161a18" letter-spacing="4">LOCKED REFERENCE 01 / CHARACTER</text><text x="80" y="132" font-family="Arial,sans-serif" font-size="18" fill="#6a706b">Saudi/GCC creative executive · charcoal abaya · matching headscarf · minimal accessories</text><g font-family="Arial,sans-serif" fill="#1a1d1b"><g transform="translate(90 205)"><rect width="320" height="610" rx="24" fill="#e3dfd5"/><circle cx="160" cy="135" r="66" fill="#c99b7f"/><path d="M94 129c10-75 122-92 145-9l-5 64H91z" fill="#272b29"/><path d="M105 207c36-27 76-33 112 0l42 294H66z" fill="#303432"/><path d="M82 500h156l24 85H55z" fill="#2a2e2c"/><text x="22" y="590" font-size="15" font-weight="700">FRONT / FULL BODY</text></g><g transform="translate(470 205)"><rect width="320" height="610" rx="24" fill="#e3dfd5"/><circle cx="164" cy="135" r="66" fill="#c99b7f"/><path d="M103 112c34-61 116-63 137 11l-15 61H97z" fill="#272b29"/><path d="M120 206c29-18 65-20 95 1l30 300H77z" fill="#303432"/><text x="22" y="590" font-size="15" font-weight="700">3/4 / WALKING</text></g><g transform="translate(850 205)"><rect width="320" height="610" rx="24" fill="#e3dfd5"/><circle cx="166" cy="136" r="66" fill="#c99b7f"/><path d="M119 96c54-36 111 1 116 65l-20 32H112z" fill="#272b29"/><path d="M125 209c34-17 67-13 95 6l21 291H80z" fill="#303432"/><rect x="67" y="440" width="190" height="85" rx="20" fill="#a77d54" opacity=".45"/><text x="22" y="590" font-size="15" font-weight="700">DRIVING / PROFILE</text></g></g><rect x="1210" y="205" width="300" height="610" rx="24" fill="#151918"/><text x="1245" y="258" font-family="Arial,sans-serif" font-size="16" font-weight="700" fill="#d8ff69">DO NOT CHANGE</text><g font-family="Arial,sans-serif" font-size="18" fill="#f4f2ea"><text x="1245" y="310">• Facial proportions</text><text x="1245" y="350">• Charcoal abaya</text><text x="1245" y="390">• Headscarf shape</text><text x="1245" y="430">• Minimal accessories</text><text x="1245" y="470">• Natural makeup</text><text x="1245" y="510">• Calm expression</text><text x="1245" y="550">• Body proportions</text></g><text x="80" y="915" font-family="Arial,sans-serif" font-size="22" font-weight="700" fill="#161a18">Purpose:</text><text x="185" y="915" font-family="Arial,sans-serif" font-size="22" fill="#4f5752">Lock identity before any storyboard frame or video generation.</text></svg>